<svg xmlns="http://www.w3.org/2000/svg" viewBox="0 0 512 512"><path d="M462.933 284.8L441.6 306.133 397.867 262.4l21.333-21.333c4.48-4.48 11.947-4.48 16.427 0l27.306 27.306c4.48 4.48 4.48 11.947 0 16.427M256 404.053l129.28-129.28 43.733 43.734L299.947 448H256v-43.947m0-105.386c-94.293 0-170.667 38.186-170.667 85.333v42.667h128v-40.32l85.334-85.334c-14.08-1.706-28.374-2.346-42.667-2.346m0-213.334c-47.147 0-85.333 38.187-85.333 85.334S208.853 256 256 256s85.333-38.187 85.333-85.333S303.147 85.333 256 85.333z"/></svg>